<?xml version="1.0" standalone="no"?>
<!DOCTYPE svg PUBLIC "-//W3C//DTD SVG 20010904//EN"
 "http://www.w3.org/TR/2001/REC-SVG-20010904/DTD/svg10.dtd">
<svg version="1.0" xmlns="http://www.w3.org/2000/svg"
 width="300.000000pt" height="61.000000pt" viewBox="0 0 300.000000 61.000000"
 preserveAspectRatio="xMidYMid meet">
<metadata>
Created by potrace 1.15, written by Peter Selinger 2001-2017
</metadata>
<g transform="translate(0.000000,61.000000) scale(0.100000,-0.100000)"
fill="#000000" stroke="none">
<path d="M171 363 c-38 -98 -75 -190 -80 -206 -10 -26 -9 -27 18 -27 26 0 31
6 43 43 l15 42 75 3 76 3 14 -43 c12 -35 20 -44 41 -46 15 -2 27 0 27 5 0 17
-145 403 -151 403 -4 0 -39 -80 -78 -177z"/>
<path d="M2230 352 c0 -210 2 -215 68 -228 27 -6 32 -4 32 14 0 11 -11 27 -25
36 l-25 16 0 175 0 175 -25 0 -25 0 0 -188z"/>
<path d="M1800 372 c0 -126 -3 -162 -16 -180 -20 -29 -69 -30 -86 -2 -7 11
-23 20 -36 20 -19 0 -22 -4 -17 -22 24 -82 152 -91 189 -13 13 26 16 68 16
194 l0 161 -25 0 -25 0 0 -158z"/>
<path d="M517 410 c-23 -19 -28 -19 -33 -6 -3 9 -15 16 -25 16 -18 0 -19 -9
-19 -145 l0 -145 25 0 c24 0 24 0 27 111 3 109 4 112 31 133 26 19 30 19 55 5
27 -15 27 -16 30 -132 3 -117 3 -117 27 -117 l25 0 0 109 c0 107 1 110 27 130
28 23 59 20 81 -7 8 -10 12 -53 12 -124 l0 -108 25 0 25 0 0 115 c0 127 -9
158 -51 175 -34 14 -92 6 -109 -16 -11 -13 -15 -13 -31 2 -30 27 -90 29 -122
4z"/>
<path d="M938 419 c-29 -11 -34 -24 -19 -48 8 -12 12 -12 24 -2 9 7 34 11 59
9 34 -2 45 -8 55 -28 12 -25 12 -25 -36 -31 -118 -15 -169 -102 -101 -171 27
-27 36 -30 71 -25 22 3 48 12 58 21 16 15 19 15 36 -4 21 -23 55 -27 55 -6 0
8 -4 18 -10 21 -5 3 -10 41 -10 83 0 90 -12 142 -40 167 -24 21 -103 29 -142
14z"/>
<path d="M1290 423 c-8 -3 -22 -12 -31 -20 -14 -12 -17 -12 -22 2 -4 8 -13 15
-22 15 -13 0 -15 -21 -15 -145 l0 -145 25 0 25 0 0 115 0 115 34 17 c32 15 37
15 59 0 29 -19 37 -53 37 -163 0 -84 0 -84 26 -84 l26 0 -4 118 c-3 64 -9 125
-13 135 -15 35 -81 56 -125 40z"/>
<path d="M1962 415 c-29 -13 -32 -17 -22 -35 9 -16 15 -18 30 -10 30 16 85 12
103 -8 27 -30 22 -49 -12 -44 -74 11 -141 -41 -141 -110 0 -76 75 -112 145
-70 28 17 30 17 47 0 10 -10 25 -18 33 -18 17 0 21 35 5 45 -5 3 -10 47 -10
96 0 105 -14 142 -61 158 -42 15 -77 13 -117 -4z"/>
<path d="M2418 419 c-29 -11 -34 -24 -19 -48 8 -12 12 -12 24 -2 9 7 34 11 59
9 34 -2 45 -8 55 -28 12 -25 12 -25 -36 -31 -118 -15 -169 -102 -101 -171 27
-27 36 -30 71 -25 22 3 48 12 58 21 16 15 19 15 36 -4 21 -23 55 -27 55 -6 0
8 -4 18 -10 21 -5 3 -10 41 -10 83 0 90 -12 142 -40 167 -24 21 -103 29 -142
14z"/>
<path d="M2765 418 c-11 -6 -23 -16 -28 -22 -5 -7 -11 -5 -18 7 -5 9 -17 17
-24 17 -13 0 -15 -25 -15 -145 l0 -145 25 0 25 0 0 115 0 114 30 16 c39 20 47
19 75 -10 23 -23 25 -31 25 -130 l0 -105 25 0 25 0 0 105 c0 114 -14 166 -48
184 -26 14 -71 14 -97 -1z"/>
</g>
</svg>
